<svg width="228" height="115" viewBox="0 0 228 115" fill="none" xmlns="http://www.w3.org/2000/svg">
<path d="M33.6138 0H158L147.969 8.98578H31.6076C18.0655 8.98578 9.53905 16.9731 10.0406 30.951L9.55813 97.221C9.55145 98.1393 10.6824 98.5803 11.2991 97.8998L31.7176 75.3678C32.2863 74.7402 33.0937 74.3823 33.9406 74.3823H82.7664L72.7353 83.8673H37.5002C36.9412 83.8673 36.4077 84.1012 36.029 84.5124L9.03749 113.82C7.53279 115.318 5.24378 115.467 2.51721 113.82C-0.291711 112.123 0.00926081 110.325 0.00946295 106.831C0.00931969 102.443 0.00940537 59.808 0.00944559 39.7932L0.00946295 29.9526C0.00946295 8.98578 10.0406 0 33.6138 0Z" fill="#FFD600"/>
<path d="M205.634 55.4559V26.5439H216.058C222.608 26.5439 228 28.7978 228 35.9481C228 42.8263 222.528 45.8574 216.258 45.8574H212.783V55.4559H205.634ZM212.783 40.3781H215.899C219.373 40.3781 221.051 38.7849 221.051 35.9481C221.051 33.0336 219.134 32.0232 215.699 32.0232H212.783V40.3781Z" fill="white"/>
<path d="M185.858 43.4481H191.929L191.29 40.9999C190.491 38.1243 189.732 34.6657 188.934 31.7123H188.774C188.055 34.7434 187.256 38.1243 186.497 40.9999L185.858 43.4481ZM195.004 55.4559L193.287 48.8108H184.5L182.783 55.4559H175.514L184.74 26.5439H193.287L202.513 55.4559H195.004Z" fill="white"/>
<path d="M161.306 55.4559V32.2952H153.278V26.5439H176.523V32.2952H168.455V55.4559H161.306Z" fill="white"/>
<path d="M140.209 56C136.335 56 132.181 54.601 129.106 51.842L133.14 47.0622C135.256 48.8109 138.012 50.0155 140.368 50.0155C143.004 50.0155 144.243 49.044 144.243 47.4896C144.243 45.8187 142.605 45.2746 140.049 44.2254L136.255 42.671C133.14 41.4663 130.224 38.9404 130.224 34.7435C130.224 29.886 134.697 26 141.008 26C144.442 26 148.077 27.2824 150.673 29.8083L147.118 34.1606C145.161 32.7228 143.324 31.9456 141.008 31.9456C138.811 31.9456 137.453 32.8005 137.453 34.3549C137.453 35.9482 139.33 36.5699 141.966 37.5803L145.68 39.0181C149.355 40.456 151.551 42.8653 151.551 46.9456C151.551 51.7642 147.398 56 140.209 56Z" fill="white"/>
<path d="M96.2133 55.4559L90.7816 26.5439H98.0904L99.9676 39.7175L101.166 48.8885H101.325C101.885 45.8186 102.484 42.7097 103.083 39.7175L106.118 26.5439H112.109L115.224 39.7175C115.823 42.6709 116.343 45.7797 116.942 48.8885H117.141C117.501 45.7797 117.9 42.7097 118.26 39.7175L120.177 26.5439H126.966L121.814 55.4559H112.828L110.152 42.8652C109.673 40.6502 109.273 38.3186 108.994 36.1424H108.794C108.435 38.3186 108.075 40.6502 107.636 42.8652L105.04 55.4559H96.2133Z" fill="white"/>
<path d="M68.5002 55.4559V26.5439H87.3514V32.2952H75.6493V37.6579H85.5941V43.487H75.6493V49.6268H87.7907V55.4559H68.5002Z" fill="white"/>
<path d="M38 55.4559V26.5439H45.2689L52.6576 40.3781L55.5731 46.7901H55.7728C55.3734 43.7201 54.8143 39.5621 54.8143 36.1035V26.5439H61.6039V55.4559H54.335L46.9863 41.5051L44.0707 35.1709H43.871C44.1905 38.3963 44.7896 42.36 44.7896 45.8574V55.4559H38Z" fill="white"/>
</svg>
